<svg width="35" height="35" viewBox="0 0 35 35" fill="none" xmlns="http://www.w3.org/2000/svg">
<g id="share-svgrepo-com 1">
<g id="SVGRepo_iconCarrier">
<path id="Vector" fill-rule="evenodd" clip-rule="evenodd" d="M15.0252 6.86111C15.0252 4.17639 17.2115 2 19.9084 2C22.6053 2 24.7917 4.17639 24.7917 6.86111C24.7917 9.54582 22.6053 11.7222 19.9084 11.7222C18.5466 11.7222 17.316 11.167 16.4312 10.2738L9.67123 14.8764C9.73364 15.187 9.76646 15.5078 9.76646 15.8355C9.76646 16.4845 9.63812 17.1048 9.40565 17.6718L16.8179 22.5418C17.6592 21.8568 18.7356 21.4444 19.9084 21.4444C22.6053 21.4444 24.7917 23.6208 24.7917 26.3056C24.7917 28.9902 22.6053 31.1667 19.9084 31.1667C17.2115 31.1667 15.0252 28.9902 15.0252 26.3056C15.0252 25.6024 15.1757 24.933 15.4462 24.3287L8.09385 19.4981C7.23619 20.2435 6.11275 20.6966 4.8832 20.6966C2.18629 20.6966 0 18.5201 0 15.8355C0 13.1508 2.18629 10.9744 4.8832 10.9744C6.43402 10.9744 7.81452 11.6939 8.70836 12.8138L15.2599 8.35311C15.1075 7.88232 15.0252 7.38067 15.0252 6.86111Z" fill="#BFA1D2"/>
</g>
</g>
</svg>
