<svg xmlns="http://www.w3.org/2000/svg" xmlns:xlink="http://www.w3.org/1999/xlink" width="500" zoomAndPan="magnify" viewBox="0 0 375 374.999991" height="500" preserveAspectRatio="xMidYMid meet" version="1.0"><defs><clipPath id="b011bcaf9a"><path d="M 79 6 L 296 6 L 296 369.664062 L 79 369.664062 Z M 79 6 " clip-rule="nonzero"/></clipPath></defs><g clip-path="url(#b011bcaf9a)"><path fill="#b590cc" d="M 285.054688 337.582031 C 295.269531 330.605469 296.519531 323.992188 289.6875 317.824219 C 287.480469 315.839844 284.835938 314.445312 282.042969 313.417969 C 270.433594 309.304688 263.597656 303.796875 263.011719 296.523438 C 274.769531 290.722656 272.050781 285.359375 253.679688 280.511719 L 253.679688 275.664062 C 270.210938 272.578125 270.136719 268.539062 259.261719 263.765625 C 264.039062 259.652344 263.597656 255.832031 257.574219 252.382812 C 255.734375 251.351562 253.75 250.542969 251.695312 249.957031 C 224.503906 242.539062 216.933594 209.558594 216.789062 166.886719 C 231.558594 166.738281 235.160156 163.140625 232.441406 157.558594 C 244.566406 154.914062 247.136719 150.800781 240.304688 145.292969 C 261.539062 140.078125 258.96875 135.378906 238.464844 131.117188 C 243.390625 124.800781 241.992188 120.980469 230.972656 121.054688 C 221.636719 121.128906 212.894531 120.6875 209 115.765625 L 208.117188 115.253906 C 229.207031 106.511719 243.902344 85.285156 242.949219 60.828125 C 241.773438 31.519531 217.964844 7.722656 188.714844 6.621094 C 156.457031 5.375 129.929688 31.082031 129.929688 63.03125 C 129.929688 87.046875 144.917969 107.46875 166.007812 115.691406 C 162.113281 120.613281 153.371094 121.054688 144.039062 120.980469 C 133.015625 120.90625 131.617188 124.726562 136.542969 131.042969 C 115.964844 135.304688 113.46875 139.929688 134.703125 145.21875 C 127.871094 150.800781 130.441406 154.914062 142.566406 157.484375 C 139.847656 163.066406 143.523438 166.667969 158.21875 166.8125 C 158.074219 209.488281 150.503906 242.464844 123.3125 249.882812 C 121.257812 250.472656 119.273438 251.28125 117.433594 252.308594 C 111.410156 255.757812 110.96875 259.578125 115.746094 263.691406 C 104.871094 268.464844 104.796875 272.578125 121.332031 275.589844 L 121.332031 280.4375 C 103.03125 285.285156 100.238281 290.648438 111.996094 296.449219 C 111.484375 303.722656 104.574219 309.230469 92.964844 313.34375 C 90.171875 314.296875 87.527344 315.765625 85.324219 317.75 C 78.488281 323.921875 79.738281 330.457031 89.953125 337.507812 C 78.488281 342.503906 76.503906 348.820312 85.910156 356.898438 C 88.1875 358.882812 90.980469 360.128906 93.992188 360.644531 C 116.628906 364.316406 138.820312 366.960938 160.5 368.355469 C 160.5 368.355469 178.355469 369.457031 187.539062 369.386719 C 196.652344 369.457031 214.511719 368.355469 214.511719 368.355469 C 236.1875 366.960938 258.378906 364.316406 281.015625 360.644531 C 284.027344 360.128906 286.820312 358.882812 289.097656 356.898438 C 298.503906 348.820312 296.519531 342.503906 285.054688 337.582031 Z M 285.054688 337.582031 " fill-opacity="1" fill-rule="nonzero"/></g></svg>