<svg xmlns="http://www.w3.org/2000/svg" xmlns:xlink="http://www.w3.org/1999/xlink" width="500" zoomAndPan="magnify" viewBox="0 0 375 374.999991" height="500" preserveAspectRatio="xMidYMid meet" version="1.0"><defs><clipPath id="3afeccb5b5"><path d="M 139 37.5 L 237 37.5 L 237 249 L 139 249 Z M 139 37.5 " clip-rule="nonzero"/></clipPath><clipPath id="40e370ee78"><path d="M 128 280 L 247 280 L 247 330.75 L 128 330.75 Z M 128 280 " clip-rule="nonzero"/></clipPath><clipPath id="a429ac7252"><path d="M 246 205 L 363.335938 205 L 363.335938 231 L 246 231 Z M 246 205 " clip-rule="nonzero"/></clipPath><clipPath id="14fc2eca6c"><path d="M 246 230 L 363.335938 230 L 363.335938 281 L 246 281 Z M 246 230 " clip-rule="nonzero"/></clipPath><clipPath id="0177e45e88"><path d="M 11.585938 205 L 129 205 L 129 231 L 11.585938 231 Z M 11.585938 205 " clip-rule="nonzero"/></clipPath><clipPath id="c5cb7f61c9"><path d="M 11.585938 230 L 129 230 L 129 281 L 11.585938 281 Z M 11.585938 230 " clip-rule="nonzero"/></clipPath></defs><path fill="#b590cc" d="M 108.570312 189.953125 C 108.570312 189.953125 111.90625 187.84375 111.90625 184.988281 C 111.90625 182.136719 106.839844 179.542969 102.800781 178.054688 C 98.761719 176.566406 98.558594 174.898438 98.558594 174.335938 C 98.558594 173.773438 99.203125 172.667969 100.992188 172.667969 C 102.78125 172.667969 103.804688 171.625 103.804688 171 C 103.804688 170.378906 103.042969 169.070312 100.027344 168.46875 C 97.011719 167.84375 97.394531 165.9375 97.394531 165.492188 C 97.394531 165.050781 97.453125 164.269531 97.855469 164.027344 C 98.257812 163.785156 100.128906 163.726562 100.269531 163.242188 C 100.410156 162.761719 99.605469 162.035156 99.0625 161.816406 C 98.519531 161.59375 99.464844 161.375 99.867188 161.273438 C 100.269531 161.171875 100.929688 160.730469 100.929688 160.226562 C 100.929688 160.226562 101.09375 159.484375 99.964844 158.519531 C 99.90625 158.480469 99.847656 158.417969 99.785156 158.378906 C 97.515625 157.113281 87.304688 151.222656 83.503906 144.8125 C 79.707031 138.382812 80.511719 126.703125 80.730469 125.71875 C 80.953125 124.714844 81.917969 123.890625 83.023438 123.808594 C 83.90625 123.75 84.972656 123.003906 84.972656 122.121094 C 84.972656 120.59375 86.398438 121.136719 86.941406 120.394531 C 87.605469 119.46875 87.023438 118.585938 86.398438 118.160156 C 85.917969 117.839844 86.078125 117.117188 87.042969 116.894531 C 88.007812 116.675781 91.304688 116.453125 93.355469 115.910156 C 95.402344 115.367188 94.742188 112.050781 93.355469 111.289062 C 91.96875 110.523438 88.109375 109.15625 84.671875 107.710938 C 81.234375 106.265625 84.066406 103.992188 84.953125 103.992188 C 85.835938 103.992188 86.5 102.988281 86.5 102.445312 C 86.5 101.902344 86.078125 100.152344 84.570312 100.152344 C 83.0625 100.152344 78.359375 100.152344 78.359375 100.152344 C 78.359375 100.152344 89.996094 96.597656 89.996094 84.355469 C 89.996094 72.117188 81.855469 64.179688 70.199219 64.179688 C 58.539062 64.179688 50.398438 72.117188 50.398438 84.355469 C 50.398438 96.597656 62.039062 100.152344 62.039062 100.152344 C 62.039062 100.152344 57.335938 100.152344 55.828125 100.152344 C 54.320312 100.152344 53.898438 101.902344 53.898438 102.445312 C 53.898438 102.988281 54.5625 103.992188 55.445312 103.992188 C 56.328125 103.992188 59.164062 106.265625 55.726562 107.710938 C 52.289062 109.15625 48.429688 110.523438 47.042969 111.289062 C 45.65625 112.050781 44.992188 115.367188 47.042969 115.910156 C 49.09375 116.453125 52.390625 116.675781 53.355469 116.894531 C 54.300781 117.117188 54.480469 117.839844 54 118.160156 C 53.375 118.585938 52.792969 119.46875 53.457031 120.394531 C 54 121.136719 55.425781 120.613281 55.425781 122.121094 C 55.425781 123.003906 56.492188 123.75 57.375 123.808594 C 58.5 123.890625 59.464844 124.714844 59.667969 125.71875 C 59.886719 126.722656 60.691406 138.382812 56.890625 144.8125 C 53.09375 151.242188 42.902344 157.113281 40.613281 158.378906 C 40.550781 158.417969 40.492188 158.480469 40.429688 158.519531 C 39.304688 159.484375 39.464844 160.226562 39.464844 160.226562 C 39.464844 160.75 40.128906 161.171875 40.53125 161.273438 C 40.933594 161.375 41.878906 161.574219 41.335938 161.816406 C 40.792969 162.035156 39.988281 162.761719 40.128906 163.242188 C 40.269531 163.726562 42.140625 163.785156 42.542969 164.027344 C 42.941406 164.269531 43.003906 165.050781 43.003906 165.492188 C 43.003906 165.9375 43.386719 167.84375 40.371094 168.46875 C 37.355469 169.089844 36.589844 170.398438 36.589844 171 C 36.589844 171.625 37.617188 172.667969 39.40625 172.667969 C 41.195312 172.667969 41.835938 173.792969 41.835938 174.335938 C 41.835938 174.898438 41.636719 176.566406 37.597656 178.054688 C 33.554688 179.542969 28.492188 182.15625 28.492188 184.988281 C 28.492188 187.84375 31.828125 189.953125 31.828125 189.953125 C 30.039062 190.074219 27.585938 190.816406 27.585938 194.054688 C 27.585938 197.269531 29.515625 198.433594 29.515625 198.433594 L 110.882812 198.433594 C 110.882812 198.433594 112.8125 197.269531 112.8125 194.054688 C 112.789062 190.816406 110.359375 190.074219 108.570312 189.953125 Z M 57.9375 93.460938 C 51.222656 86.328125 54.300781 78.546875 56.773438 74.75 C 57.195312 74.105469 58.28125 74.589844 57.976562 75.371094 C 53.957031 85.523438 56.914062 89.140625 58.921875 92.476562 C 59.484375 93.402344 58.378906 93.921875 57.9375 93.460938 Z M 61.214844 72.054688 L 60.609375 72.558594 C 60.308594 72.800781 60.046875 73.082031 59.808594 73.382812 L 59.425781 73.84375 C 59.023438 74.226562 58.621094 74.148438 58.300781 73.84375 C 57.996094 73.542969 57.996094 73.121094 58.300781 72.71875 L 58.441406 72.539062 C 58.820312 72.035156 59.265625 71.574219 59.746094 71.191406 L 60.089844 70.929688 C 60.390625 70.628906 60.890625 70.628906 61.214844 70.929688 C 61.515625 71.230469 61.515625 71.734375 61.214844 72.054688 Z M 55.625 101.582031 C 55.625 101.140625 56.46875 100.796875 57.636719 100.796875 L 77.054688 101.441406 C 77.375 101.460938 77.375 101.703125 77.054688 101.722656 L 57.636719 102.363281 C 56.1875 102.363281 55.625 102.023438 55.625 101.582031 Z M 48.8125 114.101562 C 48.128906 114.121094 47.566406 113.578125 47.566406 112.894531 C 47.566406 112.214844 48.128906 111.671875 48.8125 111.691406 L 88.730469 112.894531 Z M 54.539062 118.84375 C 54.539062 118.304688 55.082031 117.878906 55.828125 117.878906 L 68.25 118.664062 C 68.449219 118.683594 68.449219 118.984375 68.25 119.007812 L 55.828125 119.789062 C 54.902344 119.808594 54.539062 119.367188 54.539062 118.84375 Z M 57.957031 122.824219 C 57.03125 122.824219 56.671875 122.402344 56.671875 121.859375 C 56.671875 121.316406 57.214844 120.894531 57.957031 120.894531 L 70.378906 121.679688 C 70.582031 121.699219 70.582031 122 70.378906 122.019531 Z M 62.300781 127.046875 C 62.300781 127.046875 65.738281 141.335938 59.222656 158.179688 L 48.773438 158.179688 C 48.773438 158.179688 62.660156 149.496094 62.300781 127.046875 Z M 40.710938 160.046875 C 40.710938 159.363281 41.515625 159.304688 41.515625 159.304688 L 77.394531 159.464844 L 41.515625 160.8125 C 41.515625 160.8125 40.710938 160.730469 40.710938 160.046875 Z M 41.957031 163.28125 C 41.957031 163.28125 41.394531 163.242188 41.394531 162.71875 C 41.394531 162.21875 41.976562 162.175781 41.976562 162.175781 L 67.484375 162.296875 Z M 38.800781 171.363281 C 38.800781 171.363281 37.757812 171.300781 37.757812 170.679688 C 37.757812 170.054688 38.800781 169.996094 38.800781 169.996094 L 85.554688 169.996094 Z M 95.726562 192.144531 L 71.265625 192.90625 L 30.824219 193.328125 C 30.824219 193.328125 29.375 193.25 29.375 192.425781 C 29.375 191.601562 30.824219 191.519531 30.824219 191.519531 L 95.726562 191.519531 Z M 32.691406 187.058594 C 32.691406 187.058594 31.003906 186.9375 31.003906 185.691406 C 31.003906 184.445312 32.691406 184.324219 32.691406 184.324219 L 107.804688 184.324219 Z M 32.691406 187.058594 " fill-opacity="1" fill-rule="nonzero"/><g clip-path="url(#3afeccb5b5)"><path fill="#b590cc" d="M 139.503906 243.195312 C 139.503906 246.992188 141.695312 248.339844 141.695312 248.339844 L 234.09375 248.339844 C 234.09375 248.339844 236.285156 246.972656 236.285156 243.195312 C 236.285156 239.394531 233.511719 238.53125 231.480469 238.390625 C 231.480469 238.390625 235.28125 235.917969 235.28125 232.5625 C 235.28125 229.207031 229.53125 226.152344 224.929688 224.402344 C 220.34375 222.652344 220.125 220.683594 220.125 220.019531 C 220.125 219.359375 220.847656 218.050781 222.898438 218.050781 C 224.949219 218.050781 226.113281 216.804688 226.113281 216.082031 C 226.113281 215.359375 225.230469 213.832031 221.8125 213.085938 C 218.394531 212.363281 218.816406 210.09375 218.816406 209.589844 C 218.816406 209.085938 218.898438 208.164062 219.359375 207.859375 C 219.824219 207.558594 221.933594 207.5 222.113281 206.9375 C 222.273438 206.375 221.371094 205.53125 220.746094 205.269531 C 220.144531 205.007812 221.210938 204.765625 221.671875 204.644531 C 222.132812 204.523438 222.878906 204.023438 222.878906 203.398438 C 222.878906 202.796875 220.203125 200.523438 216.667969 198.835938 C 213.128906 197.167969 206.136719 191.640625 202.4375 181.433594 C 198.738281 171.222656 199.320312 161.3125 199.320312 159.285156 C 199.320312 157.234375 199.320312 150.640625 199.320312 149.175781 C 199.320312 147.707031 200.96875 145.675781 202.617188 145.476562 C 204.265625 145.273438 205.25 144.308594 205.25 143.625 C 205.25 142.945312 204.566406 142.21875 203.824219 141.878906 C 203.078125 141.535156 204.988281 141.09375 205.453125 141.035156 C 205.914062 140.972656 206.898438 140.332031 206.898438 139.707031 C 206.898438 139.085938 206.375 138.402344 205.691406 138.160156 C 205.007812 137.917969 205.972656 136.792969 207.199219 136.632812 C 208.40625 136.472656 211.703125 136.191406 213.050781 135.949219 C 214.417969 135.707031 215.683594 133.980469 215.683594 133.015625 C 215.683594 132.050781 215.359375 130.019531 212.105469 128.914062 C 208.847656 127.789062 206.375 127.066406 205.070312 126.582031 C 203.761719 126.101562 202.296875 124.453125 202.296875 123.628906 C 202.296875 122.804688 202.71875 122.0625 203.480469 121.878906 C 204.246094 121.699219 205.59375 121.078125 205.59375 119.992188 C 205.59375 118.90625 205.089844 117.820312 203.402344 117.359375 C 201.734375 116.894531 200.488281 116.152344 200.464844 115.507812 C 200.445312 114.847656 201.429688 114 202.277344 113.761719 C 203.121094 113.519531 203.703125 112.535156 203.703125 112.050781 C 203.703125 111.570312 203.601562 110.96875 202.757812 110.824219 C 201.914062 110.683594 201.050781 110.523438 201.050781 110.101562 C 201.050781 109.660156 212.347656 81.765625 212.445312 80.839844 C 212.546875 79.914062 213.351562 77.261719 210.839844 75.695312 C 208.324219 74.125 200.304688 71.65625 196.488281 71.65625 L 196.488281 69.523438 L 195.039062 69.523438 C 195.039062 69.523438 194.355469 68.941406 194.960938 68.578125 C 195.5625 68.21875 195.804688 67.773438 195.804688 67.210938 C 195.804688 66.648438 195.382812 64.742188 194.839844 63.917969 C 194.277344 63.09375 193.332031 61.664062 193.210938 61.144531 C 193.089844 60.640625 193.550781 59.816406 194.355469 60.359375 C 195.160156 60.921875 196.828125 61.484375 197.953125 61.484375 C 199.078125 61.484375 201.410156 60.78125 201.410156 58.652344 C 201.410156 56.519531 201.410156 55.152344 201.210938 54.53125 C 201.007812 53.90625 200.527344 52.339844 199.160156 52 C 197.792969 51.65625 196.488281 51.757812 195.742188 51.976562 C 195 52.199219 194.820312 52.582031 194.417969 52.703125 C 193.996094 52.820312 193.472656 52.722656 193.351562 52.441406 C 193.230469 52.140625 193.453125 51.757812 193.953125 51.234375 C 194.457031 50.691406 195.683594 48.179688 195.683594 46.449219 C 195.683594 44.722656 193.8125 43.816406 193.109375 43.617188 C 192.40625 43.394531 190.878906 43.457031 190.515625 43.175781 C 190.15625 42.875 190.257812 42.410156 190.597656 42.109375 C 190.917969 41.808594 191.28125 41.164062 191.28125 40.441406 C 191.28125 39.699219 190.980469 38.792969 190.257812 38.3125 C 189.53125 37.828125 188.628906 37.890625 187.945312 37.890625 C 187.261719 37.890625 186.355469 37.828125 185.632812 38.3125 C 184.910156 38.792969 184.609375 39.699219 184.609375 40.441406 C 184.609375 41.183594 184.96875 41.828125 185.292969 42.109375 C 185.613281 42.410156 185.734375 42.875 185.371094 43.175781 C 185.011719 43.476562 183.480469 43.394531 182.777344 43.617188 C 182.074219 43.839844 180.207031 44.742188 180.207031 46.449219 C 180.207031 48.160156 181.410156 50.691406 181.933594 51.234375 C 182.4375 51.777344 182.65625 52.160156 182.539062 52.441406 C 182.417969 52.742188 181.875 52.820312 181.472656 52.703125 C 181.050781 52.582031 180.890625 52.199219 180.144531 51.976562 C 179.402344 51.757812 178.074219 51.65625 176.730469 52 C 175.363281 52.339844 174.878906 53.886719 174.679688 54.53125 C 174.476562 55.152344 174.476562 56.519531 174.476562 58.652344 C 174.476562 60.78125 176.808594 61.484375 177.933594 61.484375 C 179.058594 61.484375 180.730469 60.921875 181.53125 60.359375 C 182.335938 59.796875 182.800781 60.621094 182.679688 61.144531 C 182.558594 61.644531 181.613281 63.09375 181.050781 63.917969 C 180.488281 64.742188 180.085938 66.671875 180.085938 67.210938 C 180.085938 67.773438 180.328125 68.21875 180.929688 68.578125 C 181.53125 68.941406 180.847656 69.523438 180.847656 69.523438 L 179.402344 69.523438 L 179.402344 71.65625 C 175.582031 71.65625 167.5625 74.125 165.050781 75.695312 C 162.539062 77.261719 163.34375 79.914062 163.441406 80.839844 C 163.542969 81.742188 174.839844 109.660156 174.839844 110.101562 C 174.839844 110.542969 173.953125 110.683594 173.128906 110.824219 C 172.304688 110.96875 172.1875 111.589844 172.1875 112.050781 C 172.1875 112.535156 172.769531 113.519531 173.613281 113.761719 C 174.457031 114 175.441406 114.847656 175.421875 115.507812 C 175.402344 116.171875 174.15625 116.914062 172.488281 117.359375 C 170.820312 117.820312 170.296875 118.886719 170.296875 119.992188 C 170.296875 121.078125 171.644531 121.699219 172.40625 121.878906 C 173.171875 122.0625 173.59375 122.804688 173.59375 123.628906 C 173.59375 124.453125 172.125 126.101562 170.820312 126.582031 C 169.511719 127.066406 167.019531 127.789062 163.785156 128.914062 C 160.527344 130.039062 160.207031 132.050781 160.207031 133.015625 C 160.207031 133.980469 161.472656 135.707031 162.839844 135.949219 C 164.207031 136.191406 167.484375 136.453125 168.6875 136.632812 C 169.894531 136.792969 170.878906 137.917969 170.195312 138.160156 C 169.511719 138.402344 168.988281 139.085938 168.988281 139.707031 C 168.988281 140.332031 169.976562 140.972656 170.4375 141.035156 C 170.898438 141.09375 172.808594 141.515625 172.066406 141.878906 C 171.320312 142.21875 170.636719 142.945312 170.636719 143.625 C 170.636719 144.308594 171.601562 145.273438 173.269531 145.476562 C 174.917969 145.675781 176.566406 147.707031 176.566406 149.175781 C 176.566406 150.640625 176.566406 157.234375 176.566406 159.285156 C 176.566406 161.332031 177.152344 171.242188 173.453125 181.433594 C 169.753906 191.640625 162.757812 197.148438 159.222656 198.835938 C 155.683594 200.503906 153.011719 202.777344 153.011719 203.398438 C 153.011719 204.003906 153.753906 204.523438 154.214844 204.644531 C 154.679688 204.765625 155.746094 205.007812 155.140625 205.269531 C 154.539062 205.53125 153.613281 206.394531 153.773438 206.9375 C 153.933594 207.5 156.066406 207.558594 156.527344 207.859375 C 156.992188 208.140625 157.070312 209.066406 157.070312 209.589844 C 157.070312 210.113281 157.511719 212.363281 154.074219 213.085938 C 150.660156 213.808594 149.773438 215.335938 149.773438 216.082031 C 149.773438 216.804688 150.941406 218.050781 152.992188 218.050781 C 155.039062 218.050781 155.765625 219.359375 155.765625 220.019531 C 155.765625 220.683594 155.542969 222.652344 150.960938 224.402344 C 146.378906 226.152344 140.609375 229.207031 140.609375 232.5625 C 140.609375 235.917969 144.40625 238.390625 144.40625 238.390625 C 142.277344 238.53125 139.503906 239.394531 139.503906 243.195312 Z M 176.871094 54.128906 C 176.1875 55.394531 175.945312 55.917969 176.144531 58.691406 C 176.144531 58.691406 175.261719 57.382812 175.363281 55.675781 C 175.460938 53.96875 176.328125 52.902344 177.152344 52.660156 C 177.976562 52.421875 179.199219 52.660156 179.199219 52.660156 C 179.199219 52.660156 177.554688 52.863281 176.871094 54.128906 Z M 182.296875 49.082031 C 182.296875 49.082031 181.3125 48.078125 181.410156 46.753906 C 181.511719 45.445312 182.515625 44.621094 183.441406 44.421875 C 184.367188 44.238281 185.753906 44.421875 185.753906 44.421875 C 185.753906 44.421875 183.882812 44.5625 183.121094 45.546875 C 182.355469 46.53125 182.074219 46.933594 182.296875 49.082031 Z M 181.433594 65.644531 C 181.875 64.859375 182.800781 63.074219 182.800781 63.074219 C 182.800781 63.074219 181.792969 66.488281 181.792969 67.03125 C 181.792969 67.574219 182.539062 68.539062 182.539062 68.539062 C 182.539062 68.539062 181.734375 68.339844 181.292969 67.796875 C 180.847656 67.234375 180.988281 66.429688 181.433594 65.644531 Z M 167.484375 81.441406 C 166.457031 77.703125 168.167969 77.082031 169.230469 76.4375 C 172.6875 74.347656 177.875 73.824219 177.875 73.824219 C 175.785156 75.03125 174.296875 76.15625 173.292969 77.320312 L 202.796875 77.964844 L 202.796875 78.308594 L 172.046875 79.273438 C 171 81.644531 171.421875 84.335938 172.207031 88.15625 C 174.09375 97.359375 176.667969 107.148438 176.667969 107.148438 C 172.730469 99.75 168.507812 85.179688 167.484375 81.441406 Z M 174.539062 112.796875 C 173.996094 112.796875 173.574219 112.496094 173.574219 112.113281 C 173.574219 111.730469 174.015625 111.429688 174.539062 111.429688 L 193.933594 111.570312 L 193.933594 111.8125 Z M 172.425781 120.132812 C 172.105469 120.132812 171.863281 119.667969 171.863281 119.085938 C 171.863281 118.503906 172.125 118.019531 172.449219 118.042969 L 197.8125 118.746094 L 197.8125 119.085938 Z M 163.039062 133.375 C 162.476562 133.375 162.035156 132.914062 162.035156 132.332031 C 162.035156 131.75 162.496094 131.265625 163.0625 131.285156 L 208.546875 131.988281 L 208.546875 132.332031 Z M 170.941406 139.929688 C 170.558594 139.929688 170.257812 139.628906 170.257812 139.246094 C 170.257812 138.863281 170.558594 138.5625 170.941406 138.5625 L 184.488281 138.703125 L 184.488281 138.945312 Z M 172.96875 143.886719 C 172.566406 143.886719 172.246094 143.527344 172.246094 143.0625 C 172.246094 142.601562 172.566406 142.238281 172.96875 142.238281 L 187.503906 142.421875 L 187.503906 142.703125 Z M 177.53125 176.003906 C 179.882812 164.046875 179.402344 150.742188 179.402344 150.742188 C 182.214844 169.894531 181.574219 180.1875 180.566406 186.113281 C 179.90625 190.054688 176.40625 200.203125 176.40625 200.203125 L 164.566406 200.203125 C 169.292969 195.742188 174.617188 190.859375 177.53125 176.003906 Z M 154.378906 203.21875 C 154.378906 202.414062 155.300781 202.335938 155.300781 202.335938 L 196.066406 202.515625 L 155.28125 204.101562 C 155.28125 204.101562 154.378906 204.042969 154.378906 203.21875 Z M 155.804688 207.039062 C 155.804688 207.039062 155.160156 206.976562 155.160156 206.375 C 155.160156 205.769531 155.824219 205.730469 155.824219 205.730469 L 184.808594 205.871094 Z M 152.207031 216.542969 C 152.207031 216.542969 151.019531 216.484375 151.019531 215.738281 C 151.019531 214.996094 152.207031 214.9375 152.207031 214.9375 L 205.332031 214.9375 Z M 143.34375 233.386719 C 143.34375 231.917969 145.253906 231.777344 145.253906 231.777344 L 230.597656 231.777344 L 145.253906 234.972656 C 145.253906 234.972656 143.34375 234.851562 143.34375 233.386719 Z M 143.160156 240.238281 L 216.910156 240.238281 L 216.910156 240.964844 L 189.128906 241.867188 L 143.183594 242.371094 C 143.183594 242.371094 141.535156 242.289062 141.535156 241.304688 C 141.492188 240.320312 143.160156 240.238281 143.160156 240.238281 Z M 143.160156 240.238281 " fill-opacity="1" fill-rule="nonzero"/></g><path fill="#b590cc" d="M 259.378906 102.566406 C 260.265625 103.730469 261.371094 103.488281 261.851562 103.1875 C 262.335938 102.886719 266.714844 100.035156 269.046875 98.808594 C 271.378906 97.601562 271.378906 100.011719 271.136719 100.457031 C 270.898438 100.898438 269.589844 102.0625 267.984375 103.8125 C 266.375 105.558594 266.273438 106.726562 266.273438 108.375 C 266.273438 110.023438 267.539062 110.023438 267.539062 110.023438 C 267.539062 110.023438 273.410156 110.164062 276.144531 110.023438 C 278.855469 109.882812 279.398438 108.617188 279.980469 107.792969 C 280.566406 106.96875 281.25 105.601562 283.78125 102.445312 C 286.3125 99.289062 288.164062 97.984375 292.183594 97.984375 C 296.222656 97.984375 297.8125 97.238281 297.8125 97.238281 C 307.175781 92.980469 306.453125 81.722656 306.453125 81.722656 C 309.226562 91.59375 301.105469 97.5 301.105469 97.5 C 304.90625 98.304688 309.769531 102.242188 306.273438 109.15625 C 302.777344 116.070312 292.0625 126.0625 285.730469 131.023438 C 279.398438 135.988281 276.503906 138.804688 274.3125 142.640625 C 272.125 146.480469 272.949219 149.777344 274.273438 151.765625 C 275.582031 153.757812 283.117188 162.117188 284.101562 163.164062 C 285.085938 164.207031 284.425781 164.609375 283.679688 164.648438 C 282.9375 164.691406 282.09375 164.667969 281.371094 165.191406 C 280.625 165.714844 280.804688 166.15625 280.804688 166.15625 C 280.945312 166.597656 282.65625 166.660156 283.015625 166.902344 C 283.398438 167.140625 283.460938 167.867188 283.460938 168.265625 C 283.460938 168.667969 283.820312 170.476562 281.046875 171.0625 C 278.273438 171.644531 277.570312 172.871094 277.570312 173.433594 C 277.570312 174.015625 278.515625 175 280.164062 175 C 281.8125 175 282.394531 176.046875 282.394531 176.566406 C 282.394531 177.089844 282.214844 178.65625 278.496094 180.046875 C 274.777344 181.433594 270.132812 183.882812 270.132812 186.535156 C 270.132812 189.191406 273.1875 191.179688 273.1875 191.179688 C 271.539062 191.300781 269.289062 191.984375 269.289062 195.019531 C 269.289062 198.054688 271.058594 199.117188 271.058594 199.117188 L 345.789062 199.117188 C 345.789062 199.117188 347.558594 198.03125 347.558594 195.019531 C 347.558594 192.003906 345.328125 191.300781 343.660156 191.179688 C 343.660156 191.179688 346.714844 189.210938 346.714844 186.535156 C 346.714844 183.863281 342.050781 181.433594 338.351562 180.046875 C 334.632812 178.65625 334.453125 177.089844 334.453125 176.566406 C 334.453125 176.046875 335.035156 175 336.683594 175 C 338.332031 175 339.277344 174.015625 339.277344 173.433594 C 339.277344 172.851562 338.574219 171.625 335.800781 171.0625 C 333.027344 170.476562 333.386719 168.6875 333.386719 168.265625 C 333.386719 167.867188 333.890625 167.242188 335.195312 166.839844 C 336.90625 166.335938 336.402344 165.253906 335.238281 165.171875 C 334.070312 165.089844 332.464844 164.949219 333.125 164.226562 C 333.789062 163.503906 335.097656 162.4375 336.160156 162.4375 C 337.226562 162.4375 340.964844 162.820312 342.03125 161.957031 C 343.097656 161.070312 344.605469 156.410156 344.605469 156.410156 C 339.359375 158.359375 330.132812 156.992188 330.132812 156.992188 C 332.5625 156.109375 337.125 154.179688 340.042969 152.710938 C 342.957031 151.242188 346.351562 149.496094 347.417969 146.683594 C 348.484375 143.867188 350.132812 133.859375 350.132812 133.859375 C 340.605469 140.269531 325.066406 140.652344 325.066406 140.652344 C 328.363281 138.523438 336.441406 132.972656 340.019531 129.578125 C 343.617188 126.179688 351.195312 117.4375 351.679688 114.90625 C 352.160156 112.375 351.097656 97.621094 351.097656 97.621094 C 349.046875 100.738281 348.863281 101.800781 340.804688 108.796875 C 332.746094 115.789062 329.246094 115.992188 329.246094 115.992188 C 336.34375 110.445312 340.703125 102.96875 342.957031 97.921875 C 345.1875 92.878906 347.035156 84.515625 346.933594 80.636719 C 346.835938 76.757812 341.789062 70.246094 341.789062 70.246094 C 341.40625 73.363281 339.941406 77.441406 337.40625 82.871094 C 334.875 88.316406 332.445312 90.066406 332.445312 90.066406 C 333.808594 86.386719 334.191406 83.351562 335.257812 77.039062 C 336.324219 70.730469 335.738281 62.671875 333.992188 59.65625 C 332.242188 56.640625 326.894531 54.609375 326.894531 54.609375 C 327.679688 59.957031 326.414062 66.269531 325.148438 70.832031 C 323.878906 75.394531 322.332031 75.011719 322.332031 75.011719 C 322.914062 72.578125 323.296875 67.917969 323.21875 64.800781 C 323.117188 61.6875 323.21875 53.144531 320.203125 50.710938 C 317.1875 48.28125 307.277344 46.914062 303.921875 46.730469 C 300.566406 46.53125 299.296875 46.25 299.296875 46.25 C 290.554688 38.914062 284.144531 39.15625 280.925781 39.015625 C 277.710938 38.875 277.8125 40.140625 278.011719 40.5625 C 278.214844 41.003906 285.628906 52.179688 286.554688 53.082031 C 287.460938 53.988281 289.972656 56.136719 288.445312 56.320312 C 286.917969 56.5 284.644531 57.265625 282.433594 58.390625 C 280.203125 59.515625 276.464844 64.601562 275.300781 66.832031 C 274.132812 69.0625 271.019531 73.441406 267.621094 78.207031 C 264.222656 82.96875 259.800781 85.300781 258.976562 86.085938 C 258.152344 86.867188 257.671875 87.492188 257.570312 89.242188 C 257.46875 90.988281 257.570312 93.359375 257.570312 96.273438 C 257.632812 99.210938 258.496094 101.398438 259.378906 102.566406 Z M 279.21875 144.148438 C 277.832031 146.84375 278.617188 149.574219 279.519531 151.003906 C 280.546875 152.652344 282.074219 154.980469 283.300781 156.671875 C 283.480469 156.933594 283.15625 157.253906 282.898438 157.050781 C 280.804688 155.382812 277.53125 152.710938 276.382812 151.222656 C 274.636719 148.972656 274.917969 145.675781 276.304688 143.34375 C 277.730469 140.933594 283.015625 135.949219 287.21875 132.792969 C 287.460938 132.613281 287.742188 132.914062 287.558594 133.136719 C 285.269531 135.910156 280.285156 142.078125 279.21875 144.148438 Z M 282.453125 166.238281 C 282.453125 166.238281 281.933594 166.195312 281.933594 165.714844 C 281.933594 165.234375 282.453125 165.191406 282.453125 165.191406 L 305.890625 165.292969 Z M 331.859375 193.25 L 309.386719 193.972656 L 272.222656 194.375 C 272.222656 194.375 270.878906 194.316406 270.878906 193.53125 C 270.878906 192.765625 272.222656 192.6875 272.222656 192.6875 L 331.859375 192.6875 Z M 342.957031 185.933594 L 273.933594 188.484375 C 273.933594 188.484375 272.382812 188.386719 272.382812 187.199219 C 272.382812 186.035156 273.933594 185.914062 273.933594 185.914062 L 342.957031 185.914062 Z M 322.515625 172.527344 L 279.558594 173.816406 C 279.558594 173.816406 278.59375 173.753906 278.59375 173.171875 C 278.59375 172.589844 279.558594 172.527344 279.558594 172.527344 Z M 290.414062 70.890625 C 289.53125 71.976562 287.398438 72.296875 288.042969 71.855469 C 288.585938 71.492188 289.066406 71.371094 289.609375 70.386719 C 290.273438 69.222656 289.609375 68.761719 289.609375 68.761719 C 289.449219 67.9375 290.757812 68.097656 291.015625 68.660156 C 291.339844 69.34375 291.296875 69.804688 290.414062 70.890625 Z M 280.988281 41.746094 C 280.605469 41.164062 280.945312 41.207031 281.910156 42.089844 C 282.875 42.972656 289.691406 52.480469 290.414062 53.546875 C 291.136719 54.609375 291.679688 56.660156 290.113281 55.011719 C 288.566406 53.363281 280.988281 41.746094 280.988281 41.746094 Z M 293.570312 66.105469 C 295.980469 66.46875 289.628906 66.246094 287.820312 67.773438 C 286.757812 68.679688 285.1875 69.886719 284.40625 71.191406 C 283.601562 72.5 283.097656 73.886719 282.875 72.5 C 282.875 72.5 282.855469 69.664062 285.992188 67.472656 C 289.128906 65.28125 291.480469 65.785156 293.570312 66.105469 Z M 273.890625 73.5625 C 275.839844 70.347656 279.519531 63.753906 281.46875 61.804688 C 283.417969 59.855469 285.550781 58.890625 287.980469 58.410156 C 290.414062 57.925781 284.183594 61.425781 283.417969 62.289062 C 282.636719 63.171875 276.625 71.816406 275.058594 73.84375 C 273.511719 75.894531 270.394531 80.054688 267.277344 82.105469 C 267.300781 82.105469 271.960938 76.78125 273.890625 73.5625 Z M 265.792969 89.402344 C 266.957031 90.96875 265.8125 92.917969 265.269531 93.683594 C 264.726562 94.445312 264.988281 93.28125 265.007812 92.4375 C 265.046875 91.453125 265.1875 90.789062 264.605469 90.066406 C 264.003906 89.320312 263.519531 89.160156 262.777344 89.523438 C 262.152344 89.824219 261.832031 89.921875 262.414062 89.160156 C 263.136719 88.234375 264.625 87.832031 265.792969 89.402344 Z M 258.835938 91.191406 C 258.9375 90.023438 258.9375 88.65625 259.722656 87.390625 C 260.503906 86.125 262.675781 84.578125 262.675781 84.578125 C 263.359375 84.054688 263.21875 84.316406 262.816406 84.898438 C 262.433594 85.480469 260.925781 87.210938 260.527344 88.277344 C 260.222656 89.078125 260.183594 90.566406 260.144531 92.214844 C 260.101562 93.863281 260.125 95.570312 260.34375 96.816406 C 260.566406 98.0625 261.046875 99.289062 261.609375 100.234375 C 262.074219 101.039062 261.832031 102.082031 260.96875 100.9375 C 260.425781 100.234375 259.582031 98.6875 259.140625 97.078125 C 258.695312 95.472656 258.738281 92.355469 258.835938 91.191406 Z M 258.835938 91.191406 " fill-opacity="1" fill-rule="nonzero"/><path fill="#b590cc" d="M 128.832031 255.574219 L 187.460938 280.515625 L 246.09375 255.574219 Z M 128.832031 255.574219 " fill-opacity="1" fill-rule="nonzero"/><g clip-path="url(#40e370ee78)"><path fill="#b590cc" d="M 187.460938 330.402344 L 246.09375 305.457031 L 187.460938 280.515625 L 128.832031 305.457031 Z M 187.460938 330.402344 " fill-opacity="1" fill-rule="nonzero"/></g><g clip-path="url(#a429ac7252)"><path fill="#b590cc" d="M 246.09375 205.710938 L 304.707031 230.652344 L 363.335938 205.710938 Z M 246.09375 205.710938 " fill-opacity="1" fill-rule="nonzero"/></g><g clip-path="url(#14fc2eca6c)"><path fill="#b590cc" d="M 246.09375 255.574219 L 304.707031 280.515625 L 363.335938 255.574219 L 304.707031 230.652344 Z M 246.09375 255.574219 " fill-opacity="1" fill-rule="nonzero"/></g><g clip-path="url(#0177e45e88)"><path fill="#b590cc" d="M 11.585938 205.710938 L 70.21875 230.652344 L 128.832031 205.710938 Z M 11.585938 205.710938 " fill-opacity="1" fill-rule="nonzero"/></g><g clip-path="url(#c5cb7f61c9)"><path fill="#b590cc" d="M 70.21875 280.515625 L 128.832031 255.574219 L 70.21875 230.652344 L 11.585938 255.574219 Z M 70.21875 280.515625 " fill-opacity="1" fill-rule="nonzero"/></g></svg>