<svg width="46" height="45" viewBox="0 0 46 45" fill="none" xmlns="http://www.w3.org/2000/svg">
<g id="new-year-time-svgrepo-com 1" clip-path="url(#clip0_24_60)">
<g id="SVGRepo_iconCarrier">
<g id="Group">
<path id="Vector" d="M23.0001 10.4768C22.1271 10.4768 21.4193 11.1692 21.4193 12.0232V16.9171L16.3236 8.60833C15.8745 7.87575 14.9033 7.63863 14.1549 8.07787C13.4062 8.51727 13.1636 9.46712 13.6126 10.1994L21.6445 23.2956C21.6469 23.2992 21.6493 23.3006 21.6515 23.3039C21.929 23.7486 22.4284 24.0465 22.9999 24.0465C23.8728 24.0465 24.5806 23.3541 24.5806 22.5001V12.0232C24.5808 11.1692 23.873 10.4768 23.0001 10.4768Z" fill="#BFA1D2"/>
<path id="Vector_2" d="M23.0001 0C10.3187 0 0.00134277 10.0935 0.00134277 22.5C0.00134277 34.9065 10.3187 45 23.0001 45C35.6815 45 45.9989 34.9065 45.9989 22.5C45.9989 10.0935 35.6815 0 23.0001 0ZM24.5808 41.8458V40.8342C24.5808 39.9803 23.873 39.2879 23.0001 39.2879C22.1272 39.2879 21.4194 39.9803 21.4194 40.8342V41.8458C11.7388 41.0956 3.99235 33.517 3.22553 24.0462H4.25921C5.13212 24.0462 5.83994 23.3538 5.83994 22.4999C5.83994 21.6459 5.13212 20.9535 4.25921 20.9535H3.22553C3.9925 11.483 11.7388 3.90439 21.4194 3.15424V4.16576C21.4194 5.0197 22.1272 5.71212 23.0001 5.71212C23.873 5.71212 24.5808 5.0197 24.5808 4.16576V3.15424C34.2614 3.90439 42.0079 11.483 42.7747 20.9538H41.741C40.8681 20.9538 40.1603 21.6462 40.1603 22.5002C40.1603 23.3541 40.8681 24.0465 41.741 24.0465H42.7747C42.0077 33.517 34.2614 41.0956 24.5808 41.8458Z" fill="#BFA1D2"/>
</g>
</g>
</g>
<defs>
<clipPath id="clip0_24_60">
<rect width="46" height="45" fill="white"/>
</clipPath>
</defs>
</svg>
