<svg width="27" height="34" viewBox="0 0 27 34" fill="none" xmlns="http://www.w3.org/2000/svg">
<path id="Vector" d="M1 24.3685H17.18V31L23.3865 24.3685H26V1H1V24.3685ZM21.8174 10.7995C22.9874 10.7995 23.9358 11.742 23.9358 12.9044C23.9358 14.067 22.9872 15.0093 21.8174 15.0093C20.6477 15.0093 19.6991 14.0668 19.6991 12.9044C19.6993 11.7418 20.6475 10.7995 21.8174 10.7995ZM16.2725 10.7995C17.4424 10.7995 18.3907 11.742 18.3907 12.9044C18.3907 14.067 17.4423 15.0093 16.2725 15.0093C15.1025 15.0093 14.1541 14.0668 14.1541 12.9044C14.1541 11.7418 15.1025 10.7995 16.2725 10.7995ZM10.7274 10.7995C11.8974 10.7995 12.8457 11.742 12.8457 12.9044C12.8457 14.067 11.8972 15.0093 10.7274 15.0093C9.55736 15.0093 8.60915 14.0668 8.60915 12.9044C8.60915 11.7418 9.55742 10.7995 10.7274 10.7995ZM5.1823 10.7995C6.35234 10.7995 7.30067 11.742 7.30067 12.9044C7.30067 14.067 6.35215 15.0093 5.1823 15.0093C4.01258 15.0093 3.06406 14.0668 3.06406 12.9044C3.06406 11.7418 4.01239 10.7995 5.1823 10.7995Z" fill="#BFA1D2" stroke="#BFA1D2" stroke-width="1.64653"/>
</svg>
