<svg xmlns="http://www.w3.org/2000/svg" xmlns:xlink="http://www.w3.org/1999/xlink" width="500" zoomAndPan="magnify" viewBox="0 0 375 374.999991" height="500" preserveAspectRatio="xMidYMid meet" version="1.0"><defs><clipPath id="d0680ab423"><path d="M 6.109375 6.109375 L 368.851562 6.109375 L 368.851562 369.109375 L 6.109375 369.109375 Z M 6.109375 6.109375 " clip-rule="nonzero"/></clipPath></defs><g clip-path="url(#d0680ab423)"><path fill="#b590cc" d="M 186.351562 118.582031 C 224.089844 117.871094 255.222656 147.90625 255.929688 185.644531 C 255.929688 186.320312 255.929688 186.964844 255.929688 187.640625 C 256.347656 225.378906 226.121094 256.316406 188.382812 256.734375 C 150.644531 257.15625 119.707031 226.925781 119.289062 189.1875 C 119.289062 188.671875 119.289062 188.15625 119.289062 187.640625 C 118.871094 150.097656 148.808594 119.257812 186.351562 118.582031 Z M 193.667969 6.269531 C 183.484375 5.917969 173.269531 6.433594 163.183594 7.785156 C 159.605469 8.269531 156.671875 10.78125 155.609375 14.199219 L 145.554688 46.941406 C 144.683594 49.710938 142.558594 51.9375 139.816406 52.902344 C 135.082031 54.609375 130.441406 56.511719 125.894531 58.671875 C 123.253906 59.960938 120.160156 59.894531 117.582031 58.511719 L 87.351562 42.460938 C 84.164062 40.785156 80.296875 41.109375 77.460938 43.300781 C 64.503906 53.128906 52.96875 64.699219 43.105469 77.621094 C 40.914062 80.488281 40.59375 84.324219 42.269531 87.515625 L 58.347656 117.773438 C 59.734375 120.320312 59.863281 123.414062 58.671875 126.058594 C 56.480469 130.601562 54.546875 135.242188 52.871094 139.980469 C 51.902344 142.75 49.679688 144.878906 46.875 145.714844 L 14.167969 155.800781 C 10.71875 156.832031 8.203125 159.796875 7.753906 163.34375 C 5.5625 179.488281 5.5625 195.796875 7.753906 211.941406 C 8.203125 215.484375 10.71875 218.449219 14.167969 219.480469 L 46.875 229.570312 C 49.679688 230.40625 51.902344 232.535156 52.871094 235.304688 C 54.546875 240.042969 56.480469 244.683594 58.671875 249.226562 C 59.863281 251.871094 59.734375 254.964844 58.347656 257.507812 L 42.269531 287.769531 C 40.59375 290.929688 40.914062 294.796875 43.105469 297.664062 C 52.96875 310.585938 64.503906 322.125 77.460938 331.984375 C 80.296875 334.175781 84.164062 334.464844 87.351562 332.824219 L 117.582031 316.773438 C 120.160156 315.386719 123.253906 315.324219 125.894531 316.582031 C 130.441406 318.738281 135.082031 320.671875 139.816406 322.347656 C 142.558594 323.316406 144.683594 325.539062 145.554688 328.3125 L 155.609375 361.054688 C 156.671875 364.5 159.605469 367.015625 163.183594 367.464844 C 179.296875 369.65625 195.632812 369.65625 211.746094 367.464844 C 215.292969 367.015625 218.257812 364.5 219.320312 361.054688 L 229.375 328.3125 C 230.246094 325.539062 232.371094 323.316406 235.113281 322.347656 C 239.847656 320.671875 244.523438 318.738281 249.035156 316.582031 C 251.675781 315.324219 254.738281 315.386719 257.316406 316.773438 L 287.578125 332.824219 C 290.765625 334.464844 294.632812 334.175781 297.46875 331.984375 C 310.425781 322.125 321.960938 310.585938 331.824219 297.664062 C 334.015625 294.796875 334.335938 290.929688 332.660156 287.769531 L 316.613281 257.507812 C 315.195312 254.964844 315.097656 251.871094 316.289062 249.226562 C 318.449219 244.683594 320.382812 240.042969 322.058594 235.304688 C 323.027344 232.535156 325.25 230.40625 328.054688 229.570312 L 360.796875 219.480469 C 364.210938 218.417969 366.726562 215.484375 367.207031 211.941406 C 369.367188 195.796875 369.367188 179.488281 367.207031 163.34375 C 366.726562 159.796875 364.210938 156.832031 360.796875 155.800781 L 328.054688 145.714844 C 325.25 144.878906 323.027344 142.75 322.058594 139.980469 C 320.382812 135.242188 318.449219 130.601562 316.289062 126.058594 C 315.097656 123.414062 315.195312 120.320312 316.613281 117.773438 L 332.660156 87.515625 C 334.335938 84.324219 334.015625 80.488281 331.824219 77.621094 C 321.960938 64.699219 310.425781 53.128906 297.46875 43.300781 C 294.632812 41.109375 290.765625 40.785156 287.578125 42.460938 L 257.316406 58.511719 C 254.738281 59.894531 251.675781 59.960938 249.035156 58.703125 C 244.523438 56.542969 239.847656 54.609375 235.113281 52.933594 C 232.371094 51.96875 230.246094 49.746094 229.375 46.941406 L 219.320312 14.230469 C 218.257812 10.78125 215.292969 8.269531 211.746094 7.785156 C 205.753906 6.980469 199.726562 6.464844 193.667969 6.269531 " fill-opacity="1" fill-rule="nonzero"/></g></svg>