<svg width="50" height="56" viewBox="0 0 50 56" fill="none" xmlns="http://www.w3.org/2000/svg">
<g id="SVGRepo_iconCarrier">
<path id="Vector" d="M9.79394 25.7006H40.3394V21.7723H9.79394V25.7006ZM9.79394 29.6288V32.575C9.79393 33.9937 10.1043 35.3984 10.7074 36.7091C11.3104 38.0198 12.1943 39.2107 13.3086 40.2138C14.4229 41.2169 15.7458 42.0127 17.2017 42.5556C18.6576 43.0984 20.2181 43.3779 21.7939 43.3779H28.3394C29.9152 43.3779 31.4757 43.0984 32.9316 42.5556C34.3875 42.0127 35.7104 41.2169 36.8247 40.2138C37.939 39.2107 38.8229 38.0198 39.4259 36.7091C40.029 35.3984 40.3394 33.9937 40.3394 32.575V29.6288H9.79394ZM7.61208 17.844H42.5212C42.8077 17.844 43.0915 17.8948 43.3562 17.9935C43.6209 18.0922 43.8614 18.2369 44.064 18.4193C44.2666 18.6017 44.4273 18.8182 44.537 19.0565C44.6466 19.2948 44.703 19.5502 44.703 19.8081V32.575C44.703 36.482 42.979 40.2289 39.9102 42.9915C36.8414 45.7541 32.6793 47.3061 28.3394 47.3061H21.7939C17.454 47.3061 13.2919 45.7541 10.2231 42.9915C7.1543 40.2289 5.43028 36.482 5.43028 32.575V19.8081C5.43027 19.5502 5.4867 19.2948 5.59634 19.0565C5.70598 18.8182 5.86669 18.6017 6.06929 18.4193C6.27189 18.2369 6.51241 18.0922 6.77712 17.9935C7.04184 17.8948 7.32555 17.844 7.61208 17.844ZM25.0667 0.166656C25.3532 0.166656 25.6369 0.217462 25.9016 0.316172C26.1663 0.414882 26.4068 0.559564 26.6094 0.741956C26.812 0.924348 26.9727 1.14088 27.0824 1.37918C27.192 1.61749 27.2485 1.8729 27.2484 2.13084V11.9515C27.2484 12.4724 27.0186 12.972 26.6094 13.3404C26.2002 13.7087 25.6453 13.9157 25.0667 13.9157C24.488 13.9157 23.9331 13.7087 23.5239 13.3404C23.1147 12.972 22.8849 12.4724 22.8849 11.9515V2.13084C22.8848 1.8729 22.9413 1.61749 23.0509 1.37918C23.1606 1.14088 23.3213 0.924348 23.5239 0.741956C23.7265 0.559564 23.967 0.414882 24.2317 0.316172C24.4964 0.217462 24.7801 0.166656 25.0667 0.166656ZM16.3394 4.09496C16.918 4.09496 17.473 4.3019 17.8822 4.67024C18.2913 5.03859 18.5212 5.53817 18.5212 6.05909V11.9515C18.5212 12.4725 18.2913 12.972 17.8822 13.3404C17.473 13.7087 16.918 13.9157 16.3394 13.9157C15.7607 13.9157 15.2057 13.7087 14.7966 13.3404C14.3874 12.972 14.1575 12.4725 14.1575 11.9515V6.05909C14.1575 5.80115 14.214 5.54574 14.3236 5.30744C14.4333 5.06914 14.594 4.85261 14.7966 4.67022C14.9992 4.48784 15.2397 4.34316 15.5044 4.24446C15.7692 4.14576 16.0529 4.09496 16.3394 4.09496ZM33.7939 4.09496C34.0804 4.09496 34.3641 4.14576 34.6289 4.24446C34.8936 4.34316 35.1341 4.48784 35.3367 4.67022C35.5393 4.85261 35.7 5.06914 35.8097 5.30744C35.9193 5.54574 35.9758 5.80115 35.9758 6.05909V11.9515C35.9758 12.4725 35.7459 12.972 35.3367 13.3404C34.9276 13.7087 34.3726 13.9157 33.7939 13.9157C33.2153 13.9157 32.6603 13.7087 32.2512 13.3404C31.842 12.972 31.6121 12.4725 31.6121 11.9515V6.05909C31.6121 5.53817 31.842 5.03859 32.2511 4.67024C32.6603 4.3019 33.2153 4.09496 33.7939 4.09496ZM3.24848 51.2383H46.8848C47.4635 51.2383 48.0184 51.4453 48.4276 51.8136C48.8368 52.182 49.0667 52.6816 49.0667 53.2025C49.0667 53.7234 48.8368 54.223 48.4276 54.5914C48.0184 54.9597 47.4635 55.1667 46.8848 55.1667H3.24848C2.66982 55.1667 2.11487 54.9597 1.70569 54.5914C1.29652 54.223 1.06665 53.7234 1.06665 53.2025C1.06665 52.6816 1.29652 52.182 1.70569 51.8136C2.11487 51.4453 2.66982 51.2383 3.24848 51.2383Z" fill="#BFA1D2" stroke="#BFA1D2" stroke-width="0.188477"/>
</g>
</svg>
