<svg width="68" height="65" viewBox="0 0 68 65" fill="none" xmlns="http://www.w3.org/2000/svg">
<g id="hot-svgrepo-com 1">
<g id="SVGRepo_iconCarrier">
<path id="Vector" d="M47.4621 32.7921C47.4621 23.6266 43.4944 18.8585 35.8618 18.8585C43.4925 18.8585 47.4621 14.1655 47.4621 5C47.4621 14.1655 51.3693 18.8585 59 18.8585C51.3693 18.8585 47.4621 23.6243 47.4621 32.7921ZM30.0616 9.25423C30.0616 25.9004 37.327 34.6271 51.1857 34.6271C37.327 34.6271 30.0616 43.3538 30.0616 60C30.0616 43.3538 22.8568 34.6271 9 34.6271C22.8587 34.6271 30.0616 25.9004 30.0616 9.25423ZM45.3249 44.3042C45.3249 48.6311 47.2179 50.9776 50.8203 50.9776H50.8809C47.2179 50.9776 45.3249 53.2514 45.3249 57.5784C45.3249 53.2514 43.4319 50.9776 39.8295 50.9776C43.4319 50.9776 45.3249 48.6311 45.3249 44.3042Z" fill="#BFA1D2"/>
</g>
</g>
</svg>
