<svg xmlns="http://www.w3.org/2000/svg" xmlns:xlink="http://www.w3.org/1999/xlink" width="500" zoomAndPan="magnify" viewBox="0 0 375 374.999991" height="500" preserveAspectRatio="xMidYMid meet" version="1.0"><defs><clipPath id="344711dbcf"><path d="M 44 5.160156 L 331 5.160156 L 331 325 L 44 325 Z M 44 5.160156 " clip-rule="nonzero"/></clipPath><clipPath id="4b2d68c6c4"><path d="M 136 334 L 239 334 L 239 369.660156 L 136 369.660156 Z M 136 334 " clip-rule="nonzero"/></clipPath></defs><g clip-path="url(#344711dbcf)"><path fill="#b590cc" d="M 219.144531 18.328125 C 210.675781 9.859375 199.382812 5.160156 187.5 5.160156 C 162.792969 5.160156 142.679688 25.265625 142.679688 49.957031 L 142.679688 62.609375 C 103.136719 79.929688 75.417969 119.378906 75.417969 165.21875 L 75.417969 191.597656 C 75.417969 216.089844 68.511719 240.007812 55.457031 260.769531 L 47.035156 274.148438 C 45.265625 276.960938 44.324219 280.222656 44.324219 283.539062 L 44.324219 306.585938 C 44.324219 316.320312 52.222656 324.222656 61.972656 324.222656 L 313.035156 324.222656 C 322.777344 324.222656 330.679688 316.324219 330.679688 306.585938 L 330.679688 283.539062 C 330.679688 280.222656 329.738281 276.960938 327.96875 274.148438 L 319.546875 260.769531 C 306.484375 240.023438 299.582031 216.101562 299.582031 191.597656 L 299.582031 165.21875 C 299.582031 119.378906 271.859375 79.933594 232.320312 62.609375 L 232.320312 49.957031 C 232.320312 38.082031 227.613281 26.792969 219.144531 18.328125 Z M 177.96875 49.957031 C 177.96875 44.664062 182.207031 40.433594 187.5 40.433594 C 190.910156 40.433594 193.144531 42.195312 194.203125 43.253906 C 195.261719 44.3125 197.027344 46.546875 197.027344 49.957031 L 197.027344 53.679688 C 193.878906 53.410156 190.714844 53.195312 187.5 53.195312 C 184.28125 53.195312 181.117188 53.410156 177.96875 53.679688 Z M 264.289062 165.21875 L 264.289062 191.597656 C 264.289062 222.761719 273.066406 253.179688 289.679688 279.554688 L 295.386719 288.625 L 79.617188 288.949219 L 85.332031 279.554688 C 101.933594 253.15625 110.710938 222.742188 110.710938 191.597656 L 110.710938 165.21875 C 110.710938 122.898438 145.15625 88.46875 187.5 88.46875 C 229.847656 88.46875 264.289062 122.898438 264.289062 165.21875 Z M 264.289062 165.21875 " fill-opacity="1" fill-rule="nonzero"/></g><g clip-path="url(#4b2d68c6c4)"><path fill="#b590cc" d="M 154.335938 334.382812 C 144.589844 334.382812 136.691406 342.285156 136.691406 352.023438 C 136.691406 361.757812 144.589844 369.660156 154.335938 369.660156 L 220.667969 369.660156 C 230.410156 369.660156 238.3125 361.757812 238.3125 352.023438 C 238.3125 342.285156 230.410156 334.382812 220.667969 334.382812 Z M 154.335938 334.382812 " fill-opacity="1" fill-rule="nonzero"/></g></svg>