<svg xmlns="http://www.w3.org/2000/svg" xmlns:xlink="http://www.w3.org/1999/xlink" width="500" zoomAndPan="magnify" viewBox="0 0 375 374.999991" height="500" preserveAspectRatio="xMidYMid meet" version="1.0"><path fill="#b590cc" d="M 151.15625 292.261719 C 148.300781 292.265625 145.445312 292.179688 142.589844 292.003906 C 139.738281 291.828125 136.894531 291.570312 134.058594 291.21875 C 131.21875 290.871094 128.398438 290.4375 125.585938 289.914062 C 122.777344 289.390625 119.984375 288.785156 117.214844 288.089844 C 114.441406 287.398438 111.691406 286.621094 108.96875 285.757812 C 106.242188 284.894531 103.546875 283.953125 100.878906 282.921875 C 98.210938 281.894531 95.578125 280.789062 92.980469 279.597656 C 90.382812 278.410156 87.824219 277.140625 85.300781 275.796875 C 82.78125 274.449219 80.304688 273.027344 77.871094 271.527344 C 75.4375 270.027344 73.050781 268.457031 70.714844 266.8125 C 68.375 265.167969 66.089844 263.453125 63.859375 261.667969 C 61.628906 259.882812 59.453125 258.03125 57.335938 256.109375 C 55.214844 254.191406 53.160156 252.210938 51.164062 250.164062 C 49.167969 248.121094 47.234375 246.015625 45.367188 243.851562 C 43.5 241.6875 41.703125 239.46875 39.96875 237.195312 C 38.238281 234.921875 36.578125 232.597656 34.992188 230.21875 C 33.402344 227.84375 31.890625 225.421875 30.449219 222.953125 C 29.011719 220.484375 27.648438 217.972656 26.363281 215.417969 C 25.078125 212.867188 23.871094 210.277344 22.746094 207.652344 C 21.617188 205.023438 20.574219 202.363281 19.609375 199.675781 C 18.648438 196.984375 17.769531 194.265625 16.972656 191.519531 C 16.175781 188.777344 15.464844 186.007812 14.839844 183.222656 C 14.210938 180.433594 13.671875 177.628906 13.21875 174.804688 C 12.761719 171.984375 12.394531 169.152344 12.117188 166.304688 C 11.835938 163.460938 11.644531 160.613281 11.539062 157.757812 C 11.433594 154.898438 11.414062 152.042969 11.484375 149.1875 C 11.554688 146.328125 11.710938 143.476562 11.957031 140.628906 C 12.203125 137.78125 12.535156 134.945312 12.957031 132.117188 C 13.375 129.289062 13.878906 126.480469 14.472656 123.683594 C 15.066406 120.886719 15.742188 118.113281 16.503906 115.359375 C 17.265625 112.601562 18.113281 109.875 19.042969 107.171875 C 19.972656 104.46875 20.984375 101.796875 22.078125 99.15625 C 23.171875 96.519531 24.347656 93.914062 25.601562 91.34375 C 26.855469 88.777344 28.1875 86.25 29.597656 83.761719 C 31.003906 81.277344 32.488281 78.835938 34.046875 76.441406 C 35.605469 74.046875 37.238281 71.699219 38.941406 69.40625 C 40.644531 67.109375 42.414062 64.867188 44.257812 62.683594 C 46.097656 60.496094 48.003906 58.367188 49.972656 56.296875 C 51.945312 54.230469 53.976562 52.222656 56.074219 50.277344 C 58.167969 48.332031 60.320312 46.453125 62.527344 44.640625 C 64.738281 42.828125 67 41.085938 69.320312 39.414062 C 71.636719 37.738281 74 36.136719 76.417969 34.609375 C 78.832031 33.082031 81.289062 31.628906 83.796875 30.25 C 86.300781 28.875 88.84375 27.574219 91.425781 26.355469 C 94.011719 25.132812 96.628906 23.992188 99.285156 22.933594 C 101.9375 21.871094 104.621094 20.894531 107.335938 20 C 110.050781 19.101562 112.789062 18.292969 115.554688 17.566406 C 118.316406 16.835938 121.101562 16.195312 123.90625 15.640625 C 126.707031 15.082031 129.527344 14.613281 132.359375 14.230469 C 135.191406 13.847656 138.03125 13.550781 140.882812 13.339844 C 143.730469 13.132812 146.585938 13.011719 149.445312 12.976562 C 152.300781 12.941406 155.15625 12.996094 158.011719 13.140625 C 160.867188 13.28125 163.714844 13.507812 166.554688 13.824219 C 169.394531 14.144531 172.222656 14.546875 175.039062 15.035156 C 177.855469 15.527344 180.652344 16.101562 183.433594 16.765625 C 186.214844 17.425781 188.96875 18.171875 191.707031 19.003906 C 194.441406 19.835938 197.144531 20.75 199.824219 21.746094 C 202.503906 22.742188 205.148438 23.824219 207.761719 24.980469 C 210.371094 26.140625 212.945312 27.382812 215.480469 28.699219 C 218.019531 30.015625 220.511719 31.410156 222.960938 32.882812 C 225.414062 34.351562 227.816406 35.898438 230.171875 37.515625 C 232.527344 39.132812 234.832031 40.824219 237.082031 42.582031 C 239.335938 44.34375 241.53125 46.171875 243.667969 48.066406 C 245.808594 49.960938 247.890625 51.917969 249.90625 53.941406 C 252.335938 56.363281 254.667969 58.875 256.910156 61.46875 C 259.152344 64.066406 261.292969 66.738281 263.339844 69.492188 C 265.382812 72.246094 267.320312 75.070312 269.160156 77.96875 C 270.996094 80.863281 272.722656 83.824219 274.339844 86.847656 C 275.957031 89.871094 277.460938 92.949219 278.851562 96.085938 C 280.242188 99.21875 281.515625 102.398438 282.671875 105.628906 C 283.828125 108.855469 284.863281 112.125 285.78125 115.429688 C 286.695312 118.734375 287.488281 122.066406 288.160156 125.429688 C 288.828125 128.792969 289.375 132.175781 289.792969 135.582031 C 290.214844 138.984375 290.507812 142.398438 290.679688 145.824219 C 290.847656 149.246094 290.890625 152.675781 290.804688 156.101562 C 290.722656 159.53125 290.511719 162.953125 290.175781 166.363281 C 289.839844 169.777344 289.378906 173.171875 288.792969 176.550781 C 288.207031 179.929688 287.496094 183.28125 286.664062 186.609375 C 285.828125 189.9375 284.875 193.226562 283.800781 196.484375 C 282.722656 199.738281 281.527344 202.953125 280.214844 206.121094 C 278.902344 209.289062 277.476562 212.402344 275.933594 215.464844 C 274.390625 218.527344 272.738281 221.53125 270.972656 224.472656 C 269.210938 227.414062 267.339844 230.285156 265.367188 233.085938 C 263.390625 235.890625 261.316406 238.617188 259.140625 241.269531 C 256.960938 243.917969 254.691406 246.484375 252.324219 248.96875 C 249.960938 251.449219 247.507812 253.84375 244.964844 256.144531 C 242.421875 258.445312 239.800781 260.652344 237.097656 262.761719 C 234.390625 264.867188 231.613281 266.875 228.761719 268.777344 C 225.910156 270.683594 222.988281 272.480469 220.003906 274.167969 C 217.019531 275.855469 213.976562 277.433594 210.878906 278.898438 C 207.777344 280.363281 204.625 281.710938 201.425781 282.941406 C 198.226562 284.175781 194.984375 285.285156 191.703125 286.28125 C 188.417969 287.273438 185.105469 288.144531 181.757812 288.894531 C 178.414062 289.640625 175.042969 290.265625 171.648438 290.769531 C 168.257812 291.269531 164.851562 291.644531 161.429688 291.894531 C 158.011719 292.140625 154.585938 292.265625 151.15625 292.261719 Z M 151.15625 43.734375 C 149.074219 43.730469 146.996094 43.785156 144.917969 43.902344 C 142.839844 44.015625 140.765625 44.1875 138.695312 44.421875 C 136.628906 44.65625 134.566406 44.949219 132.515625 45.300781 C 130.464844 45.652344 128.425781 46.0625 126.394531 46.53125 C 124.367188 47 122.355469 47.523438 120.355469 48.109375 C 118.359375 48.691406 116.378906 49.332031 114.417969 50.03125 C 112.457031 50.726562 110.515625 51.480469 108.597656 52.289062 C 106.679688 53.097656 104.785156 53.960938 102.917969 54.875 C 101.046875 55.792969 99.207031 56.761719 97.394531 57.785156 C 95.582031 58.808594 93.796875 59.882812 92.046875 61.007812 C 90.292969 62.132812 88.578125 63.304688 86.890625 64.527344 C 85.207031 65.75 83.558594 67.023438 81.949219 68.339844 C 80.335938 69.65625 78.761719 71.019531 77.230469 72.429688 C 75.695312 73.835938 74.203125 75.285156 72.753906 76.777344 C 71.304688 78.273438 69.898438 79.804688 68.535156 81.378906 C 67.171875 82.953125 65.855469 84.566406 64.585938 86.214844 C 63.316406 87.863281 62.09375 89.546875 60.921875 91.269531 C 59.746094 92.988281 58.625 94.738281 57.550781 96.523438 C 56.476562 98.304688 55.457031 100.121094 54.488281 101.960938 C 53.519531 103.804688 52.601562 105.671875 51.742188 107.566406 C 50.878906 109.460938 50.070312 111.378906 49.320312 113.320312 C 48.566406 115.261719 47.871094 117.222656 47.230469 119.203125 C 46.589844 121.183594 46.007812 123.183594 45.484375 125.195312 C 44.957031 127.210938 44.492188 129.238281 44.082031 131.28125 C 43.671875 133.320312 43.320312 135.371094 43.03125 137.433594 C 42.738281 139.492188 42.507812 141.5625 42.332031 143.636719 C 42.160156 145.710938 42.046875 147.789062 41.992188 149.871094 C 41.9375 151.949219 41.945312 154.03125 42.011719 156.113281 C 42.074219 158.191406 42.199219 160.269531 42.386719 162.34375 C 42.570312 164.417969 42.8125 166.484375 43.117188 168.542969 C 43.417969 170.601562 43.78125 172.652344 44.199219 174.691406 C 44.621094 176.730469 45.097656 178.753906 45.636719 180.765625 C 46.171875 182.777344 46.765625 184.769531 47.417969 186.75 C 48.066406 188.726562 48.773438 190.683594 49.535156 192.621094 C 50.300781 194.558594 51.117188 196.46875 51.988281 198.359375 C 52.863281 200.25 53.789062 202.113281 54.769531 203.949219 C 55.746094 205.789062 56.777344 207.59375 57.859375 209.371094 C 58.945312 211.152344 60.078125 212.894531 61.261719 214.609375 C 62.441406 216.320312 63.675781 218 64.953125 219.640625 C 66.230469 221.285156 67.558594 222.886719 68.929688 224.453125 C 70.300781 226.019531 71.714844 227.546875 73.171875 229.03125 C 74.632812 230.515625 76.132812 231.960938 77.671875 233.359375 C 79.214844 234.757812 80.792969 236.113281 82.414062 237.421875 C 84.03125 238.730469 85.6875 239.992188 87.378906 241.207031 C 89.070312 242.417969 90.792969 243.582031 92.550781 244.699219 C 94.308594 245.8125 96.097656 246.878906 97.914062 247.890625 C 99.734375 248.902344 101.582031 249.863281 103.453125 250.769531 C 105.328125 251.675781 107.226562 252.527344 109.148438 253.324219 C 111.074219 254.125 113.015625 254.867188 114.980469 255.550781 C 116.945312 256.238281 118.929688 256.867188 120.929688 257.441406 C 122.933594 258.015625 124.949219 258.527344 126.980469 258.988281 C 129.011719 259.445312 131.050781 259.84375 133.105469 260.183594 C 135.160156 260.523438 137.222656 260.804688 139.292969 261.027344 C 141.359375 261.246094 143.4375 261.410156 145.515625 261.515625 C 147.59375 261.617188 149.675781 261.660156 151.757812 261.644531 C 153.835938 261.628906 155.917969 261.550781 157.996094 261.417969 C 160.070312 261.28125 162.144531 261.085938 164.210938 260.832031 C 166.277344 260.578125 168.332031 260.265625 170.382812 259.894531 C 172.429688 259.523438 174.464844 259.09375 176.488281 258.601562 C 178.511719 258.113281 180.519531 257.570312 182.511719 256.964844 C 184.503906 256.359375 186.476562 255.699219 188.433594 254.984375 C 190.386719 254.265625 192.320312 253.496094 194.230469 252.667969 C 196.140625 251.839844 198.023438 250.957031 199.882812 250.023438 C 201.742188 249.085938 203.574219 248.097656 205.375 247.058594 C 207.179688 246.019531 208.953125 244.925781 210.691406 243.785156 C 212.433594 242.640625 214.136719 241.449219 215.8125 240.210938 C 217.484375 238.972656 219.117188 237.683594 220.714844 236.351562 C 222.316406 235.015625 223.875 233.640625 225.394531 232.214844 C 226.914062 230.792969 228.390625 229.328125 229.824219 227.820312 C 231.261719 226.3125 232.652344 224.765625 234 223.175781 C 235.34375 221.589844 236.644531 219.964844 237.898438 218.304688 C 239.152344 216.640625 240.355469 214.945312 241.511719 213.214844 C 242.667969 211.484375 243.777344 209.71875 244.832031 207.925781 C 245.886719 206.132812 246.890625 204.308594 247.839844 202.457031 C 248.789062 200.605469 249.6875 198.726562 250.53125 196.824219 C 251.375 194.921875 252.160156 192.996094 252.894531 191.046875 C 253.628906 189.097656 254.304688 187.128906 254.925781 185.144531 C 255.542969 183.15625 256.105469 181.152344 256.613281 179.132812 C 257.117188 177.113281 257.5625 175.082031 257.953125 173.035156 C 258.339844 170.992188 258.671875 168.9375 258.941406 166.871094 C 259.210938 164.808594 259.425781 162.738281 259.578125 160.664062 C 259.730469 158.585938 259.820312 156.507812 259.855469 154.425781 C 259.886719 152.34375 259.863281 150.265625 259.777344 148.183594 C 259.6875 146.105469 259.542969 144.027344 259.339844 141.957031 C 259.132812 139.886719 258.871094 137.820312 258.546875 135.765625 C 258.222656 133.707031 257.839844 131.664062 257.398438 129.628906 C 256.960938 127.59375 256.460938 125.574219 255.902344 123.566406 C 255.347656 121.5625 254.734375 119.574219 254.0625 117.601562 C 253.394531 115.632812 252.667969 113.683594 251.886719 111.753906 C 251.101562 109.824219 250.265625 107.917969 249.375 106.039062 C 248.484375 104.15625 247.539062 102.300781 246.542969 100.476562 C 245.542969 98.648438 244.496094 96.851562 243.394531 95.085938 C 242.292969 93.316406 241.144531 91.582031 239.941406 89.882812 C 238.742188 88.179688 237.496094 86.515625 236.199219 84.886719 C 234.90625 83.257812 233.5625 81.667969 232.175781 80.113281 C 230.789062 78.5625 229.359375 77.050781 227.886719 75.578125 C 225.375 73.0625 222.742188 70.679688 219.996094 68.421875 C 217.25 66.167969 214.398438 64.050781 211.445312 62.074219 C 208.488281 60.097656 205.445312 58.273438 202.3125 56.59375 C 199.175781 54.917969 195.96875 53.398438 192.6875 52.035156 C 189.402344 50.671875 186.058594 49.472656 182.660156 48.4375 C 179.257812 47.402344 175.816406 46.539062 172.328125 45.84375 C 168.84375 45.144531 165.332031 44.621094 161.796875 44.269531 C 158.257812 43.917969 154.710938 43.738281 151.15625 43.734375 Z M 151.15625 43.734375 " fill-opacity="1" fill-rule="nonzero"/><path fill="#b590cc" d="M 349.121094 366 C 347.085938 365.992188 345.136719 365.59375 343.261719 364.8125 C 341.386719 364.027344 339.734375 362.914062 338.300781 361.472656 L 228.195312 251.441406 C 227.480469 250.730469 226.84375 249.953125 226.285156 249.117188 C 225.722656 248.277344 225.25 247.394531 224.867188 246.460938 C 224.480469 245.53125 224.1875 244.570312 223.992188 243.582031 C 223.792969 242.59375 223.695312 241.59375 223.695312 240.585938 C 223.695312 239.578125 223.792969 238.578125 223.992188 237.589844 C 224.1875 236.601562 224.480469 235.640625 224.867188 234.710938 C 225.25 233.777344 225.722656 232.894531 226.285156 232.054688 C 226.84375 231.214844 227.480469 230.441406 228.195312 229.726562 C 228.90625 229.015625 229.683594 228.378906 230.519531 227.820312 C 231.359375 227.257812 232.242188 226.785156 233.175781 226.398438 C 234.105469 226.015625 235.066406 225.722656 236.054688 225.527344 C 237.042969 225.328125 238.042969 225.230469 239.050781 225.230469 C 240.058594 225.230469 241.058594 225.328125 242.046875 225.527344 C 243.035156 225.722656 243.996094 226.015625 244.925781 226.398438 C 245.859375 226.785156 246.742188 227.257812 247.582031 227.820312 C 248.417969 228.378906 249.195312 229.015625 249.90625 229.726562 L 359.9375 339.835938 C 360.46875 340.367188 360.957031 340.9375 361.402344 341.542969 C 361.851562 342.148438 362.25 342.785156 362.605469 343.449219 C 362.957031 344.113281 363.261719 344.800781 363.511719 345.507812 C 363.765625 346.214844 363.964844 346.941406 364.109375 347.679688 C 364.253906 348.417969 364.347656 349.160156 364.382812 349.914062 C 364.417969 350.664062 364.402344 351.414062 364.328125 352.164062 C 364.253906 352.910156 364.125 353.652344 363.941406 354.378906 C 363.757812 355.109375 363.523438 355.824219 363.238281 356.519531 C 362.949219 357.214844 362.613281 357.882812 362.226562 358.53125 C 361.839844 359.175781 361.410156 359.789062 360.933594 360.371094 C 360.457031 360.953125 359.941406 361.5 359.382812 362.003906 C 358.828125 362.511719 358.234375 362.972656 357.613281 363.394531 C 356.988281 363.8125 356.335938 364.183594 355.65625 364.507812 C 354.976562 364.832031 354.277344 365.105469 353.558594 365.324219 C 352.839844 365.546875 352.109375 365.710938 351.363281 365.824219 C 350.621094 365.9375 349.871094 365.996094 349.121094 366 Z M 349.121094 366 " fill-opacity="1" fill-rule="nonzero"/></svg>